<?xml version="1.0" encoding="UTF-8"?>
<svg version="1.1" xmlns="http://www.w3.org/2000/svg" width="16" height="16">
<path d="M0 0 C0.33 0.66 0.66 1.32 1 2 C1.804375 2.144375 2.60875 2.28875 3.4375 2.4375 C6 3 6 3 8 6 C7.6758631 9.32240324 7.39223697 10.60776303 5 13 C2.0625 13.375 2.0625 13.375 -1 13 C-2.9375 11.25 -2.9375 11.25 -4 9 C-3.625 7 -3.625 7 -3 5 C-3.37907282 2.81296615 -3.37907282 2.81296615 -4 1 C-2.68 0.67 -1.36 0.34 0 0 Z " fill="#75548A" transform="translate(7,2)"/>
<path d="M0 0 C0 1.65 0 3.3 0 5 C-1.32 5 -2.64 5 -4 5 C-4.33 3.68 -4.66 2.36 -5 1 C-1.125 -0 -1.125 -0 0 0 Z " fill="#E8E8E8" transform="translate(8,2)"/>
</svg>
