<?xml version="1.0" encoding="UTF-8"?>
<svg version="1.1" xmlns="http://www.w3.org/2000/svg" width="16" height="16">
<path d="M0 0 C2.375 1.125 2.375 1.125 4 3 C4.5 6 4.5 6 4 9 C1.77031412 11.57271448 0.37504726 11.95311909 -3 12.375 C-6.37504726 11.95311909 -7.77031412 11.57271448 -10 9 C-10.5 6 -10.5 6 -10 3 C-7.08783566 -0.36018962 -4.28391942 -0.53548993 0 0 Z " fill="#514646" transform="translate(11,2)"/>
<path d="M0 0 C0.66 0.33 1.32 0.66 2 1 C1.34 1.66 0.68 2.32 0 3 C0 3.99 0 4.98 0 6 C2.73905345 7.36952673 4.97087332 7.12621361 8 7 C10.51083114 5.74458443 10.87125446 4.49936512 12 2 C12.25 4.8125 12.25 4.8125 12 8 C9.77031412 10.57271448 8.37504726 10.95311909 5 11.375 C1.62495274 10.95311909 0.22968588 10.57271448 -2 8 C-2.375 4.9375 -2.375 4.9375 -2 2 C-1.34 1.34 -0.68 0.68 0 0 Z " fill="#8F8F8F" transform="translate(3,3)"/>
<path d="M0 0 C0.66 0.33 1.32 0.66 2 1 C1.34 1.66 0.68 2.32 0 3 C0 3.99 0 4.98 0 6 C0.99 6.66 1.98 7.32 3 8 C2.67 8.99 2.34 9.98 2 11 C0 9.875 0 9.875 -2 8 C-2.375 4.9375 -2.375 4.9375 -2 2 C-1.34 1.34 -0.68 0.68 0 0 Z " fill="#7A7A7A" transform="translate(3,3)"/>
</svg>
