<?xml version="1.0" encoding="UTF-8"?>
<svg version="1.1" xmlns="http://www.w3.org/2000/svg" width="16" height="16">
<path d="M0 0 C2.31 0.33 4.62 0.66 7 1 C7.144375 1.61875 7.28875 2.2375 7.4375 2.875 C7.93152225 5.03258322 7.93152225 5.03258322 9 7 C8.34 7 7.68 7 7 7 C6.67 7.66 6.34 8.32 6 9 C4.00390625 10.2890625 4.00390625 10.2890625 1.5625 11.625 C0.35787109 12.29402344 0.35787109 12.29402344 -0.87109375 12.9765625 C-3 14 -3 14 -5 14 C-4.09574874 8.87590951 -2.90492245 4.35738368 0 0 Z " fill="#E4B53F" transform="translate(7,1)"/>
<path d="M0 0 C2.31 0.33 4.62 0.66 7 1 C7.144375 1.61875 7.28875 2.2375 7.4375 2.875 C7.93152225 5.03258322 7.93152225 5.03258322 9 7 C8.34 7 7.68 7 7 7 C6.67 7.66 6.34 8.32 6 9 C5.13375 8.071875 5.13375 8.071875 4.25 7.125 C2.19750179 5.18652947 0.56633418 4.09985751 -2 3 C-1.34 2.01 -0.68 1.02 0 0 Z " fill="#78520B" transform="translate(7,1)"/>
</svg>
