<?xml version="1.0" encoding="UTF-8"?>
<svg version="1.1" xmlns="http://www.w3.org/2000/svg" width="16" height="16">
<path d="M0 0 C0.680625 -0.00515625 1.36125 -0.0103125 2.0625 -0.015625 C4 0.25 4 0.25 7 2.25 C7.42905061 6.19726562 7.08466413 8.86242079 5 12.25 C3.68 11.59 2.36 10.93 1 10.25 C1 7.61 1 4.97 1 2.25 C0.34 2.25 -0.32 2.25 -1 2.25 C-1 4.89 -1 7.53 -1 10.25 C-2.98 11.24 -2.98 11.24 -5 12.25 C-7.08466413 8.86242079 -7.42905061 6.19726562 -7 2.25 C-4.00261059 0.25174039 -3.36652492 -0.02550398 0 0 Z " fill="#7374B3" transform="translate(8,1.75)"/>
</svg>
