<?xml version="1.0" encoding="UTF-8"?>
<svg version="1.1" xmlns="http://www.w3.org/2000/svg" width="16" height="16">
<path d="M0 0 C4.29 0 8.58 0 13 0 C13 4.62 13 9.24 13 14 C8.71 14 4.42 14 0 14 C0 9.38 0 4.76 0 0 Z M1 1 C1 2.65 1 4.3 1 6 C1.33 5.01 1.66 4.02 2 3 C4.0625 2.3125 4.0625 2.3125 6 2 C6 1.67 6 1.34 6 1 C4.35 1 2.7 1 1 1 Z M7 1 C7.33 1.66 7.66 2.32 8 3 C8.99 3 9.98 3 11 3 C11.33 3.99 11.66 4.98 12 6 C12 4.35 12 2.7 12 1 C10.35 1 8.7 1 7 1 Z M1 9 C1 10.32 1 11.64 1 13 C2.32 12.67 3.64 12.34 5 12 C4.01 12 3.02 12 2 12 C1.67 11.01 1.34 10.02 1 9 Z M11 9 C11 9.99 11 10.98 11 12 C10.01 12.33 9.02 12.66 8 13 C9.32 13 10.64 13 12 13 C11.67 11.68 11.34 10.36 11 9 Z " fill="#8ACAFE" transform="translate(2,1)"/>
</svg>
