<?xml version="1.0" encoding="UTF-8"?>
<svg version="1.1" xmlns="http://www.w3.org/2000/svg" width="16" height="16">
<path d="M0 0 C1.65 0 3.3 0 5 0 C5.33 0.66 5.66 1.32 6 2 C6.66 2 7.32 2 8 2 C8.33 1.34 8.66 0.68 9 0 C10.65 0 12.3 0 14 0 C14 1.98 14 3.96 14 6 C13.34 6 12.68 6 12 6 C12.061875 7.175625 12.061875 7.175625 12.125 8.375 C12 11 12 11 10 13 C7 13.25 7 13.25 4 13 C2 11 2 11 1.875 8.375 C1.91625 7.59125 1.9575 6.8075 2 6 C1.34 6 0.68 6 0 6 C0 4.02 0 2.04 0 0 Z " fill="#BDBDBD" transform="translate(1,2)"/>
</svg>
