<?xml version="1.0" encoding="UTF-8"?>
<svg version="1.1" xmlns="http://www.w3.org/2000/svg" width="16" height="16">
<path d="M0 0 C2 2 2 2 2.125 5.125 C2.08375 6.07375 2.0425 7.0225 2 8 C1.2575 8.144375 0.515 8.28875 -0.25 8.4375 C-2.52027739 8.90187492 -4.75759479 9.41863569 -7 10 C-7 10.99 -7 11.98 -7 13 C-7.66 13 -8.32 13 -9 13 C-9.33 12.01 -9.66 11.02 -10 10 C-10.66 9.67 -11.32 9.34 -12 9 C-12.5 6.8125 -12.5 6.8125 -12 4 C-8.37990934 0.73329914 -4.85085195 -1.9770279 0 0 Z " fill="#AE422F" transform="translate(13,2)"/>
<path d="M0 0 C1.875 0.25 1.875 0.25 4 1 C5.25 3.0625 5.25 3.0625 6 5 C3 5 3 5 1.3125 3.625 C0 2 0 2 0 0 Z " fill="#E4E9EA" transform="translate(9,1)"/>
</svg>
