<?xml version="1.0" encoding="UTF-8"?>
<svg version="1.1" xmlns="http://www.w3.org/2000/svg" width="16" height="16">
<path d="M0 0 C4.57995227 1.44630072 4.57995227 1.44630072 6.375 3.8125 C7.17521121 6.61323924 6.93930211 8.25434768 6 11 C3 13 3 13 -0.0625 12.8125 C-3 12 -3 12 -5 9 C-4.82531656 5.59367293 -4.22771261 4.25531414 -1.9375 1.6875 C-1.298125 1.130625 -0.65875 0.57375 0 0 Z " fill="#5C9B63" transform="translate(7,2)"/>
<path d="M0 0 C2.88807727 2.38580296 3.61954948 4.29060747 4 8 C3.67 8.66 3.34 9.32 3 10 C0.69 10 -1.62 10 -4 10 C-3.67 9.01 -3.34 8.02 -3 7 C-2.34 7 -1.68 7 -1 7 C-0.67 4.69 -0.34 2.38 0 0 Z " fill="#366446" transform="translate(10,3)"/>
</svg>
