<?xml version="1.0" encoding="UTF-8"?>
<svg version="1.1" xmlns="http://www.w3.org/2000/svg" width="16" height="16">
<path d="M0 0 C1.6875 1.125 1.6875 1.125 3 3 C3.6875 6.6875 3.6875 6.6875 4 10 C-1.23529412 14.01778386 -1.23529412 14.01778386 -4.6875 13.9375 C-8.64538198 12.33295325 -8.64538198 12.33295325 -10 10 C-10 6.87173784 -9.98408639 4.86876093 -9 2 C-5.96815468 -0.70407826 -3.78928776 -1.76833429 0 0 Z " fill="#AAAAAA" transform="translate(11,1)"/>
<path d="M0 0 C1.75 1.5625 1.75 1.5625 3 3 C2.67 3.99 2.34 4.98 2 6 C-1.5625 7.6875 -1.5625 7.6875 -5 9 C-7.0625 7.25 -7.0625 7.25 -9 5 C-9 2.875 -9 2.875 -8 1 C-5.12158279 -1.08437109 -3.27368722 -1.37283658 0 0 Z " fill="#DB441A" transform="translate(11,1)"/>
</svg>
